# xmcd
#
# Track frame offsets:
#	150
#	10475
#	20307
#	30793
#	38468
#	49329
#	62219
#	72398
#	86872
#	99382
#	110994
#	123982
#	135099
#
# Disc length: 1897 seconds
#
# Revision: 1
# Processed by: cddbd v1.5.2PL0 Copyright (c) Steve Scherf et al.
# Submitted via: audiograbber 1.83.01
#
DISCID=a607670d
DTITLE=Stephan Gatti - Salutes Hank Williams
DYEAR=2004
DGENRE=Country
TTITLE0=My Sweet Love Ain´t Around
TTITLE1=May You Never Be Alone
TTITLE2=I Can´t Help It If I´m Still In Love With You
TTITLE3=I Can´t Get You Off Of My Mind
TTITLE4=I Don´t CAre If Tomorrow Never Comes
TTITLE5=Your Cheatin´ Heart
TTITLE6=I Can´t Escape From You
TTITLE7=I´m So Lonesome I Could Cry
TTITLE8=You Win Again
TTITLE9=Lost On The River
TTITLE10=My Son Calls Another Man Daddy
TTITLE11=House Of Gold
TTITLE12=Last Night I Dreamed Of Heaven
EXTD=
EXTT0=
EXTT1=
EXTT2=
EXTT3=
EXTT4=
EXTT5=
EXTT6=
EXTT7=
EXTT8=
EXTT9=
EXTT10=
EXTT11=
EXTT12=
PLAYORDER=
